<svg style="position:absolute;width:0;height:0" xmlns="http://www.w3.org/2000/svg" overflow="hidden"><defs><symbol id="play" viewBox="0 0 32 32"><path d="M16 32C7.163 32 0 24.837 0 16S7.163 0 16 0s16 7.163 16 16-7.163 16-16 16zm0-30.857C7.795 1.143 1.143 7.795 1.143 16S7.795 30.857 16 30.857c8.205 0 14.857-6.652 14.857-14.857 0-8.205-6.652-14.857-14.857-14.857z"/></symbol><symbol id="play-1" viewBox="0 0 32 32"><path d="M16 32C7.163 32 0 24.837 0 16S7.163 0 16 0s16 7.163 16 16h-1.143c0-8.205-6.652-14.857-14.857-14.857S1.143 7.795 1.143 16c0 8.205 6.652 14.857 14.857 14.857z"/></symbol><symbol id="play-2" viewBox="0 0 29 32"><path d="M3.649 1.979c.305.003.589.088.832.235l-.007-.004 21.397 12.351a1.664 1.664 0 0 1 .008 2.879l-.008.004L4.474 29.789c-.236.143-.52.228-.824.231h-.001a1.676 1.676 0 0 1-1.669-1.648V3.649A1.676 1.676 0 0 1 3.649 1.98zm0-1.979A3.65 3.65 0 0 0 0 3.649v24.733a3.635 3.635 0 0 0 5.48 3.133l-.017.009L26.86 19.133a3.641 3.641 0 0 0 .017-6.299l-.017-.009L5.463.493a3.575 3.575 0 0 0-1.814-.495h-.001z"/><path d="M6.901 9.29L18.52 16 6.901 22.71V9.29zm-.099-2.032a1.887 1.887 0 0 0-1.887 1.887v13.733a1.88 1.88 0 0 0 2.832 1.621l-.009.005 11.916-6.875a1.883 1.883 0 0 0 .009-3.255l-.009-.005L7.745 7.487a1.84 1.84 0 0 0-.9-.231l-.045.001h.002z"/><path d="M12.622 16.495l-2.309 1.32a.56.56 0 0 1-.845-.484v-2.649a.56.56 0 0 1 .847-.482l-.003-.001 2.309 1.32a.562.562 0 0 1 .003.975l-.003.001z"/></symbol></defs></svg>