<svg aria-hidden="true" style="position: absolute; width: 0; height: 0; overflow: hidden;" version="1.1" xmlns="http://www.w3.org/2000/svg" xmlns:xlink="http://www.w3.org/1999/xlink">
<defs>
<symbol id="play" viewBox="0 0 32 32">
<path d="M16 32c-8.837 0-16-7.163-16-16s7.163-16 16-16c8.837 0 16 7.163 16 16v0c0 8.837-7.163 16-16 16v0zM16 1.143c-8.205 0-14.857 6.652-14.857 14.857s6.652 14.857 14.857 14.857c8.205 0 14.857-6.652 14.857-14.857v0c0-8.205-6.652-14.857-14.857-14.857v0z"></path>
</symbol>

<symbol id="play-1" viewBox="0 0 32 32">
<path d="M16 32c-8.837 0-16-7.163-16-16s7.163-16 16-16c8.837 0 16 7.163 16 16v0h-1.143c0-8.205-6.652-14.857-14.857-14.857s-14.857 6.652-14.857 14.857c0 8.205 6.652 14.857 14.857 14.857v0z"></path>
</symbol>

<symbol id="play-2" viewBox="0 0 29 32">
<path d="M3.649 1.979v0c0.305 0.003 0.589 0.088 0.832 0.235l-0.007-0.004 21.397 12.351c0.502 0.292 0.834 0.828 0.834 1.442s-0.332 1.149-0.826 1.437l-0.008 0.004-21.397 12.345c-0.236 0.143-0.52 0.228-0.824 0.231h-0.001c-0.914-0.004-1.654-0.738-1.669-1.648l-0-0.001v-24.722c0.004-0.92 0.749-1.666 1.669-1.669h0zM3.649 0c-2.015 0-3.649 1.634-3.649 3.649v0 24.722c0 0.003-0 0.007-0 0.011 0 2.008 1.628 3.635 3.635 3.635 0.673 0 1.304-0.183 1.845-0.502l-0.017 0.009 21.397-12.391c1.096-0.642 1.82-1.813 1.82-3.154s-0.724-2.512-1.803-3.145l-0.017-0.009-21.397-12.332c-0.52-0.309-1.145-0.493-1.814-0.495h-0.001z"></path>
<path d="M6.901 9.29l11.619 6.71-11.619 6.71v-13.42zM6.802 7.258c-1.042 0-1.887 0.845-1.887 1.887v0 13.73c0 0.001 0 0.002 0 0.003 0 1.039 0.842 1.88 1.88 1.88 0.348 0 0.673-0.094 0.952-0.259l-0.009 0.005 11.916-6.875c0.567-0.331 0.942-0.936 0.942-1.63s-0.375-1.299-0.933-1.625l-0.009-0.005-11.909-6.882c-0.26-0.146-0.57-0.231-0.9-0.231-0.015 0-0.030 0-0.045 0.001l0.002-0z"></path>
<path d="M12.622 16.495l-2.309 1.32c-0.081 0.048-0.179 0.077-0.284 0.077-0.31 0-0.561-0.251-0.561-0.561 0-0.002 0-0.003 0-0.005v0-2.639c0-0.001-0-0.003-0-0.005 0-0.31 0.251-0.561 0.561-0.561 0.105 0 0.203 0.029 0.286 0.079l-0.003-0.001 2.309 1.32c0.171 0.098 0.285 0.28 0.285 0.488s-0.114 0.39-0.282 0.487l-0.003 0.001z"></path>
</symbol>
</defs>
</svg>
